<svg width="13" height="11" viewBox="0 0 13 11" fill="none" xmlns="http://www.w3.org/2000/svg">
<path fill-rule="evenodd" clip-rule="evenodd" d="M7.36145 10.6304C6.80325 11.0788 5.995 11.0788 5.4368 10.6304C5.27767 10.5031 5.0122 10.2809 4.67509 9.98327C4.11624 9.48826 3.55589 8.95961 3.02948 8.4083C2.48551 7.84809 1.98322 7.25116 1.52642 6.62201C0.843329 5.77978 0.440158 4.7563 0.370269 3.68702C0.331672 2.69273 0.725421 1.72841 1.45552 1.02916C2.80678 -0.252597 4.93507 -0.34699 6.40139 0.809799C7.86713 -0.348679 9.99672 -0.254229 11.3472 1.02916C12.0738 1.72635 12.4664 2.68634 12.4302 3.67678C12.3634 4.74834 11.9602 5.77448 11.2748 6.61762C10.8169 7.24875 10.3129 7.84719 9.7665 8.4083C9.24009 8.95742 8.682 9.48826 8.12316 9.98327C7.78605 10.2809 7.51982 10.5024 7.36145 10.6304Z" fill="#FF4876"/>
</svg>
